<svg xmlns="http://www.w3.org/2000/svg"  viewBox="0 0 48 48" width="48px" height="48px"><path fill="#1e4384" d="M43.472,27.933c-0.19,2.475-0.634,4.883-1.097,7.321c-0.564,2.975-1.662,6.316-4.463,7.467 c-1.158,0.476-2.446,0.491-3.697,0.5c-6.206,0.043-12.412,0.086-18.618,0.129c-3.023,0.021-6.445-0.127-8.446-2.392 c-1.443-1.633-1.741-3.951-1.976-6.117c-0.158-1.457-0.226-3.584-0.384-5.041C4.755,26.306,4.806,21.492,4.77,18 c-0.029-2.849,0.543-6.468,1.927-8.958c1.543-2.777,4.029-3.173,7.137-3.829s6.324-0.435,9.497-0.276 c2.995,0.151,5.235-0.204,8.233-0.168c3.229,0.039,6.819,0.151,9.122,2.414c2.397,2.356,2.477,6.128,2.399,9.488 C43,20.294,43.556,24.31,43.472,27.933z"/><path d="M42.972,27.933c-0.203,2.529-0.642,5.041-1.145,7.526c-0.362,1.787-0.882,3.652-1.998,5.127 c-0.527,0.696-1.208,1.284-2.012,1.635c-1.127,0.493-2.395,0.489-3.602,0.499c-2.607,0.021-5.213,0.036-7.82,0.054 c-2.607,0.018-5.213,0.036-7.82,0.054c-2.228,0.015-4.519,0.165-6.731-0.169c-1.945-0.294-3.847-1.066-4.893-2.825 c-1.064-1.791-1.222-4.062-1.374-6.094c-0.153-2.053-0.295-4.096-0.299-6.154c-0.005-2.219,0.007-4.438,0.005-6.657 c-0.001-2.104-0.093-4.212,0.211-6.301c0.293-2.011,0.808-4.167,1.965-5.871c1-1.472,2.587-2.147,4.257-2.566 c2.213-0.556,4.437-0.902,6.722-0.92c2.47-0.019,4.932,0.256,7.402,0.191c2.295-0.06,4.576-0.231,6.874-0.172 c2.011,0.052,4.151,0.184,5.982,1.099c1.851,0.925,2.977,2.591,3.475,4.567c0.508,2.017,0.425,4.1,0.406,6.161 c-0.023,2.432,0.2,4.858,0.324,7.285C42.96,25.578,42.995,26.755,42.972,27.933c-0.013,0.644,0.987,0.644,1,0 c0.051-2.62-0.193-5.232-0.322-7.846c-0.116-2.342,0.07-4.699-0.137-7.035c-0.179-2.023-0.672-4.071-1.98-5.675 c-1.34-1.644-3.353-2.465-5.4-2.801c-2.253-0.37-4.591-0.359-6.865-0.267c-2.552,0.103-5.053,0.167-7.607,0.045 c-2.663-0.127-5.336-0.159-7.961,0.378C11.907,5.098,9.973,5.42,8.416,6.444c-1.67,1.098-2.573,2.896-3.168,4.75 c-0.681,2.122-0.979,4.397-0.979,6.623c0.001,4.518-0.151,9.072,0.154,13.578c0.272,4.008,0.146,9.375,4.371,11.403 c1.849,0.887,3.957,1.034,5.978,1.051c2.715,0.023,5.433-0.032,8.148-0.051c2.813-0.019,5.627-0.039,8.44-0.058 c1.32-0.009,2.645,0.016,3.964-0.041c1.139-0.049,2.282-0.22,3.3-0.763c3.763-2.009,4.27-7.356,4.865-11.079 c0.208-1.302,0.377-2.61,0.483-3.925C44.024,27.291,43.023,27.295,42.972,27.933z"/><path fill="#74cccf" d="M14.373,19.99c0.572-0.856,1.478-1.544,2.309-2.127c1.361-0.955,2.862-1.722,4.449-2.222 c3.488-1.098,7.734-0.735,10.821,1.321c0.965,0.643,1.816,1.507,2.594,2.361c0.815,0.895,1.522,1.889,1.953,3.027 c0.226,0.596,1.193,0.338,0.964-0.266c-0.787-2.078-2.332-3.78-3.997-5.212c-1.595-1.373-3.543-2.148-5.595-2.537 c-3.949-0.749-7.818,0.138-11.179,2.316c-1.166,0.756-2.402,1.662-3.184,2.834C13.151,20.023,14.017,20.524,14.373,19.99 L14.373,19.99z"/><path fill="#d6e5e5" d="M13.685,21.508c-1.213-0.499-2.584-0.813-3.902-0.71c-1.018,0.08-2.111,0.425-2.62,1.385 c-0.302,0.568,0.561,1.074,0.863,0.505c0.666-1.254,2.753-0.964,3.87-0.705c2.005,0.465,3.672,1.548,4.83,3.266 c0.559,0.828,0.714,1.784,0.076,2.62c-0.685,0.898-1.862,0.997-2.907,1.046c-0.391,0.018-0.784,0.001-1.173-0.041 c-0.01-0.944-0.032-1.887-0.04-2.831c0.284-0.016,0.568-0.038,0.85-0.022c0.169,0.01,1.524,0.254,1.102,0.601 c-0.497,0.409,0.214,1.113,0.707,0.707c0.473-0.39,0.462-1.06,0.111-1.527c-0.355-0.473-0.92-0.661-1.485-0.738 c-0.424-0.057-0.862-0.063-1.3-0.04c-0.006-0.356-0.003-0.712-0.015-1.067c-0.022-0.642-1.022-0.645-1,0 c0.013,0.392,0.01,0.784,0.017,1.175c-0.255,0.046-0.506,0.103-0.75,0.171c-0.798,0.222-1.873,0.662-1.98,1.61 c-0.135,1.195,1.046,2.128,2.016,2.541c0.253,0.107,0.516,0.175,0.779,0.243c0.006,0.3,0.003,0.6,0.013,0.9 c0.022,0.642,1.022,0.645,1,0c-0.008-0.241-0.005-0.482-0.01-0.723c0.844,0.082,1.705,0.036,2.538-0.098 c1.289-0.207,2.408-0.99,2.823-2.265c0.452-1.386-0.308-2.598-1.169-3.626C16.028,22.811,14.982,22.041,13.685,21.508z M10.882,28.304c-0.462-0.277-1.343-1.07-0.728-1.583c0.393-0.329,0.978-0.49,1.531-0.583c0.006,0.844,0.028,1.688,0.036,2.532 C11.432,28.578,11.149,28.464,10.882,28.304z"/><path fill="#d6e5e5" d="M19.272,25.566c-0.264,0.012-0.508,0.22-0.5,0.5c0.027,0.94,0.054,1.88,0.081,2.819 c0.008,0.261,0.225,0.512,0.5,0.5c0.264-0.012,0.508-0.22,0.5-0.5c-0.027-0.94-0.054-1.88-0.081-2.819 C19.764,25.805,19.547,25.553,19.272,25.566z"/><path fill="#d6e5e5" d="M23.27,26.877c-0.414-0.225-0.87-0.388-1.312-0.548c-0.146-0.053-0.295-0.104-0.443-0.155 c0.025-0.007,0.049-0.016,0.074-0.023c0.057-0.015,0.114-0.028,0.171-0.039c0.029-0.006,0.059-0.011,0.089-0.016 c0.006-0.001,0.005-0.001,0.01-0.001c0.125-0.011,0.25-0.021,0.375-0.02c0.066,0,0.133,0.003,0.199,0.007 c0.042,0.003,0.084,0.007,0.127,0.011c0.014,0.001,0.014,0.001,0.017,0.001c0.002,0,0.001,0,0.004,0.001 c0.151,0.022,0.299,0.056,0.445,0.096c0.252,0.069,0.555-0.086,0.615-0.349c0.06-0.264-0.079-0.541-0.349-0.615 c-0.65-0.179-1.357-0.212-2.01-0.029c-0.517,0.145-1.044,0.443-1.307,0.93c-0.141,0.261-0.032,0.675,0.299,0.734 c0.345,0.062,0.683,0.178,1.014,0.289c0.206,0.069,0.411,0.143,0.614,0.219c0.101,0.038,0.202,0.077,0.302,0.117 c0.042,0.017,0.085,0.034,0.127,0.051c-0.001,0,0.035,0.013,0.05,0.02c0.004,0.002,0.003,0.002,0.008,0.004 c0.139,0.06,0.28,0.122,0.411,0.197c0.019,0.011,0.037,0.022,0.055,0.033c0.006,0.006,0.009,0.008,0.018,0.017 c-0.014,0.005-0.028,0.01-0.042,0.015c-0.063,0.02-0.126,0.038-0.19,0.053c-0.064,0.015-0.128,0.028-0.193,0.039 c-0.007,0.001-0.033,0.005-0.05,0.007c-0.016,0.001-0.035,0.003-0.041,0.004c-0.133,0.011-0.264,0.005-0.397-0.008 c-0.068-0.007-0.136-0.015-0.204-0.023c-0.003,0-0.009-0.001-0.014-0.002c0.007,0.001,0.009,0.001,0.021,0.003 c-0.007-0.001-0.014-0.002-0.022-0.003c-0.017-0.002-0.032-0.005-0.027-0.004c-0.026-0.004-0.053-0.008-0.08-0.012 c-0.138-0.022-0.275-0.047-0.411-0.079c-0.099-0.023-0.194-0.055-0.29-0.086c-0.12-0.162-0.346-0.253-0.537-0.191 c-0.268,0.087-0.41,0.341-0.349,0.615c0.07,0.313,0.388,0.465,0.662,0.557c0.268,0.09,0.551,0.134,0.83,0.173 c0.622,0.086,1.326,0.112,1.891-0.218c0.369-0.216,0.568-0.708,0.428-1.114C23.758,27.247,23.536,27.021,23.27,26.877z M20.977,27.792c0.006,0.018,0.008,0.021,0.012,0.034c-0.006-0.017-0.016-0.033-0.024-0.049 C20.969,27.782,20.973,27.787,20.977,27.792z M22.875,27.811C22.875,27.811,22.875,27.811,22.875,27.811 c-0.004,0.002-0.013,0.008-0.014,0.007C22.861,27.817,22.868,27.814,22.875,27.811z"/><path fill="#d6e5e5" d="M21.742,27.894c-0.015-0.002-0.025-0.004-0.028-0.004c0.009,0.001,0.018,0.003,0.027,0.004 C21.741,27.894,21.741,27.894,21.742,27.894z"/><path fill="#d6e5e5" d="M26.109,25.1c0.267,0.433,0.354,0.975,0.359,1.515c0.001,0.151-0.004,0.303-0.015,0.454 c-0.013,0.175-0.016,0.201-0.043,0.354c-0.012,0.068-0.031,0.135-0.046,0.203c-0.085-0.152-0.172-0.302-0.249-0.458 c-0.259-0.525-0.456-0.996-0.647-1.552c-0.065-0.189-0.21-0.334-0.416-0.358c-0.182-0.022-0.415,0.057-0.498,0.239 c-0.175,0.381-0.308,0.837-0.388,1.247c-0.124,0.635-0.102,1.277-0.065,1.92c0.015,0.27,0.219,0.5,0.5,0.5 c0.259,0,0.515-0.229,0.5-0.5c-0.025-0.434-0.038-0.88,0.003-1.317c0.018,0.04,0.031,0.082,0.049,0.121 c0.209,0.445,0.436,0.889,0.745,1.274c0.189,0.236,0.457,0.415,0.773,0.334c0.4-0.103,0.516-0.646,0.613-0.991 c0.149-0.527,0.203-1.095,0.18-1.641c-0.027-0.636-0.152-1.299-0.491-1.848C26.635,24.049,25.769,24.551,26.109,25.1z M26.703,28.151C26.715,28.163,26.716,28.166,26.703,28.151L26.703,28.151z"/><path fill="#d6e5e5" d="M30.522,27.883c-0.145-0.225-0.444-0.324-0.684-0.179c-0.154,0.093-0.313,0.169-0.473,0.249 c-0.009,0.004-0.008,0.005-0.009,0.005c-0.005,0.002-0.008,0.003-0.021,0.008c-0.043,0.017-0.087,0.034-0.13,0.05 c-0.087,0.032-0.176,0.061-0.265,0.087c-0.054,0.016-0.108,0.028-0.163,0.042c0-0.004,0-0.006,0-0.01 c0.001-0.004,0-0.001,0.002-0.011c0.004-0.024,0.007-0.048,0.011-0.072c0.014-0.088,0.03-0.175,0.047-0.263 c0.011-0.056,0.027-0.111,0.039-0.167c0.13-0.025,0.261-0.038,0.389-0.073c0.206-0.057,0.413-0.114,0.625-0.147 c0.009-0.001,0.018-0.002,0.028-0.003c0.134-0.01,0.256-0.049,0.354-0.146c0.087-0.087,0.152-0.229,0.146-0.354 c-0.011-0.255-0.221-0.52-0.5-0.5c-0.245,0.018-0.483,0.071-0.719,0.134c0.009-0.023,0.017-0.047,0.026-0.071 c0.015-0.038,0.03-0.076,0.046-0.113c0.005-0.01,0.031-0.071,0.035-0.081c0.019-0.044,0.029-0.091,0.038-0.138 c0.026-0.004,0.052-0.007,0.078-0.011c0.094-0.014,0.188-0.029,0.281-0.043c0.034-0.005,0.068-0.01,0.102-0.014 c0.032-0.004,0.08-0.009,0.091-0.011c0.198-0.022,0.397-0.035,0.597-0.036c0.261-0.001,0.512-0.229,0.5-0.5 c-0.012-0.27-0.22-0.502-0.5-0.5c-0.422,0.002-0.84,0.063-1.257,0.127c-0.094,0.014-0.188,0.029-0.281,0.043 c-0.033,0.005-0.066,0.01-0.099,0.014c-0.032,0.004-0.082,0.01-0.094,0.011c-0.198,0.022-0.397,0.035-0.597,0.036 c-0.262,0.001-0.512,0.229-0.5,0.5c0.012,0.27,0.22,0.502,0.5,0.5c0.028,0,0.056-0.005,0.084-0.005 c-0.11,0.287-0.212,0.578-0.288,0.878c-0.056,0.22-0.102,0.442-0.138,0.665c-0.038,0.237-0.068,0.46-0.02,0.698 c0.049,0.243,0.192,0.453,0.406,0.581c0.263,0.157,0.578,0.111,0.859,0.039c0.446-0.113,0.879-0.299,1.272-0.536 C30.567,28.432,30.67,28.113,30.522,27.883z M28.777,28.134c0-0.022,0-0.044,0.007-0.049C28.78,28.112,28.778,28.124,28.777,28.134 z"/><path fill="#d6e5e5" d="M33.189,25.686c-0.535,0.283-0.969,0.791-1.331,1.306c0.035-0.13,0.065-0.262,0.114-0.388 c0.044-0.113,0.129-0.291,0.209-0.434c0.04-0.071,0.081-0.141,0.126-0.209c0.02-0.031,0.041-0.061,0.061-0.091 c0.011-0.016,0.012-0.019,0.017-0.025c0.002-0.002,0.002-0.001,0.01-0.012c0.171-0.209,0.204-0.503,0-0.707 c-0.177-0.177-0.535-0.21-0.707,0c-0.559,0.682-1,1.682-0.906,2.578c0.027,0.254,0.105,0.495,0.227,0.708 c-0.492,1.018-0.766,2.166-0.339,3.249c0.099,0.251,0.335,0.426,0.615,0.349c0.239-0.066,0.449-0.362,0.349-0.615 c-0.301-0.763-0.156-1.604,0.175-2.33c0.462,0.173,0.93,0.142,1.406-0.033c0.634-0.233,1.112-0.601,1.419-1.209 c0.257-0.51,0.498-1.185,0.319-1.758C34.709,25.284,33.773,25.377,33.189,25.686z M33.845,27.159 c-0.158,0.383-0.359,0.659-0.735,0.841c-0.178,0.086-0.37,0.145-0.564,0.186c-0.118,0.025-0.078,0.025-0.159,0.019 c-0.037-0.003-0.071-0.009-0.114-0.022c0.179-0.299,0.373-0.589,0.591-0.858c0.173-0.213,0.361-0.434,0.574-0.608 c0.092-0.075,0.199-0.148,0.309-0.195c0.017-0.007,0.165-0.041,0.26-0.061c0.002,0.025,0.004,0.053,0.003,0.067 C33.99,26.741,33.928,26.959,33.845,27.159z"/><path fill="#d6e5e5" d="M40.706,26.097c-0.147-0.252-0.438-0.293-0.684-0.179c0.142-0.065-0.062-0.029-0.125-0.031 c-0.095-0.003-0.19-0.005-0.285-0.005c-0.159-0.001-0.318,0-0.477,0.004c-0.222,0.005-0.444,0.019-0.665,0.031 c-0.079-0.698-0.219-1.389-0.448-2.063c-0.087-0.256-0.344-0.424-0.615-0.349c-0.249,0.068-0.436,0.358-0.349,0.615 c0.203,0.598,0.339,1.218,0.42,1.844c-0.487,0.023-0.974,0.04-1.462,0.021c-0.644-0.024-0.643,0.976,0,1 c0.512,0.019,1.022,0.001,1.532-0.025c0.007,0.427-0.007,0.854-0.064,1.278c-0.036,0.267,0.064,0.537,0.349,0.615 c0.233,0.064,0.579-0.08,0.615-0.349c0.071-0.53,0.089-1.06,0.081-1.59c0.268-0.014,0.535-0.028,0.803-0.032 c0.399-0.005,0.823,0.07,1.194-0.101C40.772,26.668,40.833,26.314,40.706,26.097z"/><path fill="#d6e5e5" d="M20.35,23.723c0.482-0.217,0.877-0.57,1.19-0.99c0.157-0.21,0.041-0.568-0.179-0.684 c-0.262-0.138-0.516-0.045-0.684,0.179c0.075-0.1-0.031,0.036-0.046,0.054c-0.035,0.04-0.071,0.079-0.108,0.116 c-0.067,0.068-0.14,0.131-0.214,0.191c-0.021,0.014-0.07,0.051-0.082,0.058c-0.044,0.029-0.089,0.058-0.135,0.084 c-0.046,0.027-0.092,0.052-0.14,0.076c-0.012,0.006-0.067,0.031-0.091,0.042c-0.089,0.035-0.179,0.067-0.271,0.092 c-0.051,0.014-0.103,0.026-0.154,0.037c-0.01,0.002-0.04,0.008-0.067,0.014c-0.086,0.017-0.176,0.012-0.265,0.01 c0.003-0.009,0.005-0.019,0.008-0.028c0.001-0.001,0-0.001,0.001-0.002c0.008-0.018,0.017-0.035,0.026-0.052 c0.024-0.045,0.05-0.089,0.079-0.131c0.008-0.011,0.016-0.022,0.024-0.034c0.004-0.004,0.004-0.005,0.015-0.017 c0.065-0.066,0.129-0.131,0.2-0.191c0.022-0.014,0.071-0.05,0.083-0.057c0.049-0.03,0.099-0.058,0.15-0.085 c0.019-0.01,0.184-0.078,0.077-0.038c0.054-0.02,0.108-0.04,0.163-0.057c0.11-0.035,0.223-0.063,0.336-0.085 c0.057-0.011,0.114-0.02,0.171-0.029c-0.123,0.02,0.06-0.006,0.082-0.009c0.259-0.027,0.513-0.211,0.5-0.5 c-0.011-0.248-0.221-0.529-0.5-0.5c-0.504,0.053-1.005,0.155-1.447,0.417c-0.426,0.252-0.756,0.637-0.924,1.104 c-0.093,0.257-0.143,0.601-0.002,0.848c0.167,0.293,0.488,0.403,0.805,0.44C19.428,24.053,19.919,23.917,20.35,23.723z"/></svg>