<?xml version="1.0" standalone="no"?>
<!DOCTYPE svg PUBLIC "-//W3C//DTD SVG 20010904//EN"
 "http://www.w3.org/TR/2001/REC-SVG-20010904/DTD/svg10.dtd">
<svg version="1.0" xmlns="http://www.w3.org/2000/svg"
 width="632.000000pt" height="646.000000pt" viewBox="0 0 632.000000 646.000000"
 preserveAspectRatio="xMidYMid meet">

<g transform="translate(0.000000,646.000000) scale(0.100000,-0.100000)"
fill="#000000" stroke="none">
<path d="M3043 5130 c93 -132 111 -185 111 -345 1 -111 -1 -125 -27 -179 -46
-99 -111 -179 -267 -328 -308 -293 -383 -420 -351 -597 30 -166 172 -311 424
-432 109 -52 217 -92 225 -84 3 2 -36 47 -85 99 -135 141 -171 231 -152 375 6
41 20 97 31 125 27 71 109 190 223 326 289 346 327 509 174 746 -53 82 -190
224 -275 284 -43 30 -47 31 -31 10z"/>
<path d="M3596 4575 c16 -44 16 -143 0 -205 -24 -94 -70 -168 -201 -325 -203
-243 -259 -350 -260 -495 0 -84 22 -154 59 -189 l23 -22 -4 23 c-8 44 26 158
65 216 20 31 87 109 148 173 122 129 182 211 213 293 62 166 51 394 -25 511
-14 22 -22 31 -18 20z"/>
<path d="M3717 3903 c15 -113 -50 -227 -224 -390 -131 -122 -170 -181 -180
-265 l-5 -53 63 61 c35 34 105 87 155 118 126 77 184 132 228 215 29 55 36 80
36 123 0 58 -27 151 -59 202 l-20 30 6 -41z"/>
<path d="M3310 2801 c0 -7 -20 -34 -45 -60 -25 -26 -45 -53 -45 -58 0 -5 -12
-23 -26 -39 -14 -16 -43 -51 -64 -79 -21 -27 -59 -72 -84 -100 l-47 -50 5 45
c2 25 9 67 14 93 10 51 10 51 -28 60 -20 5 -30 0 -48 -26 -40 -57 -92 -111
-99 -103 -4 4 1 28 10 54 10 26 24 69 31 95 12 45 12 49 -7 62 -11 8 -23 12
-27 10 -10 -6 -35 -95 -32 -115 0 -8 -10 -45 -23 -82 -13 -38 -20 -68 -14 -68
5 0 9 -4 9 -10 0 -5 -6 -10 -13 -10 -7 0 -21 -15 -29 -34 -14 -28 -14 -37 -4
-51 22 -30 47 -12 118 80 37 50 73 92 78 93 7 3 8 -11 4 -37 -4 -28 -3 -41 5
-41 7 0 9 -9 5 -27 -4 -15 -7 -34 -7 -41 0 -7 -6 -11 -13 -8 -16 6 -26 -34
-12 -51 6 -7 20 -13 32 -13 22 0 58 47 160 206 51 80 152 204 167 204 18 0 -1
-109 -31 -173 -17 -37 -32 -81 -34 -98 -2 -16 -11 -38 -20 -48 -31 -34 -8
-108 41 -130 36 -17 95 -13 122 8 23 18 23 18 -45 17 l-69 -1 1 65 c0 42 8 83
22 115 70 167 122 329 110 340 -12 12 -68 17 -68 6z"/>
<path d="M1965 2780 c-9 -14 1 -27 25 -33 23 -6 33 5 24 27 -7 18 -39 22 -49
6z"/>
<path d="M4386 2775 c-4 -10 2 -19 17 -24 26 -10 42 1 34 23 -8 20 -43 21 -51
1z"/>
<path d="M1708 2773 c-17 -4 -89 -107 -129 -183 -31 -59 -48 -124 -49 -181 0
-41 4 -51 33 -76 41 -36 114 -58 164 -50 45 8 88 38 87 61 -3 39 -5 41 -17 25
-21 -28 -81 -59 -114 -59 -40 0 -89 40 -98 80 -14 62 54 240 122 319 19 23 38
41 43 41 16 0 17 -54 3 -97 -8 -24 -30 -59 -48 -79 l-33 -34 24 -6 c30 -8 48
6 80 62 23 39 30 79 26 140 -3 31 -48 49 -94 37z"/>
<path d="M4654 2771 c-20 -9 -63 -69 -125 -173 -18 -32 -60 -88 -93 -125 -34
-38 -53 -62 -44 -55 9 7 22 11 29 10 8 -2 13 2 12 8 -1 6 9 22 24 35 l25 24
-7 -52 c-5 -41 -3 -58 11 -83 24 -39 105 -80 159 -80 56 0 109 30 113 64 4 29
-9 34 -29 10 -19 -23 -64 -44 -94 -44 -34 0 -82 25 -95 49 -32 61 17 220 107
344 44 59 63 61 63 7 0 -45 -25 -101 -63 -142 l-26 -28 24 -6 c32 -8 40 -1 75
59 32 57 42 145 17 165 -19 16 -60 22 -83 13z"/>
<path d="M4073 2748 c-26 -29 -35 -59 -23 -78 9 -13 10 -13 11 0 0 11 25 -73
29 -98 0 -2 -5 0 -11 4 -9 5 -10 -4 -5 -32 4 -25 3 -34 -2 -25 -7 9 -9 1 -9
-25 1 -53 -12 -116 -23 -109 -5 3 -11 -4 -15 -15 -3 -11 -10 -20 -15 -20 -4 0
-13 -13 -19 -30 -5 -16 -15 -30 -20 -30 -6 0 -8 -8 -4 -17 3 -10 2 -15 -2 -11
-9 8 -100 -110 -110 -143 -4 -10 -11 -19 -16 -19 -6 0 -7 -4 -4 -10 3 -5 2
-10 -3 -10 -6 0 -15 -22 -22 -49 -13 -56 1 -103 33 -109 25 -5 81 58 103 115
10 27 24 54 31 61 7 7 13 24 13 38 0 13 5 24 10 24 6 0 10 7 10 15 0 20 36
129 58 177 10 23 24 38 35 38 10 0 20 7 24 15 7 20 -5 34 -15 18 -4 -7 -13 -9
-20 -4 -13 8 -10 44 7 101 6 19 13 59 16 90 3 30 8 75 11 99 5 31 3 46 -7 52
-20 12 -23 12 -46 -13z m-53 -472 c-5 -15 -12 -39 -15 -55 -8 -45 -89 -224
-104 -229 -9 -3 -11 0 -6 9 5 8 4 11 -1 6 -5 -5 -9 -18 -9 -30 0 -11 -6 -22
-12 -24 -22 -8 -15 20 23 90 20 38 34 70 32 73 -3 2 -15 -19 -28 -46 -13 -28
-27 -50 -32 -50 -20 0 5 122 32 154 28 34 125 134 128 131 1 -1 -2 -14 -8 -29z"/>
<path d="M2610 2713 c-41 -15 -132 -126 -123 -150 4 -10 2 -14 -4 -10 -11 7
-28 -37 -24 -62 1 -7 -2 -10 -8 -6 -6 3 -11 1 -11 -4 0 -6 5 -11 11 -11 5 0 7
-5 4 -10 -4 -6 -11 -8 -16 -5 -5 4 -9 1 -9 -4 0 -6 5 -11 10 -11 6 0 10 -7 10
-16 0 -8 -4 -12 -10 -9 -6 4 -10 -6 -10 -22 0 -23 -10 -34 -52 -61 -28 -18
-57 -31 -65 -28 -18 7 -17 68 2 136 27 97 65 249 65 258 0 5 -13 9 -28 10 -32
1 -58 -26 -155 -161 -30 -43 -58 -74 -60 -70 -3 5 1 33 9 63 18 69 18 94 -1
110 -13 10 -17 7 -30 -23 -8 -20 -15 -41 -15 -46 0 -6 -32 -48 -72 -93 -70
-80 -62 -78 31 7 l44 40 -8 -30 c-4 -16 -13 -59 -20 -94 -8 -35 -19 -67 -25
-71 -7 -4 -4 -13 9 -24 18 -17 20 -16 40 5 12 13 44 66 71 118 27 53 70 119
95 146 l46 50 -6 -40 c-3 -22 -5 -49 -6 -60 0 -10 -5 -25 -11 -32 -6 -7 -8
-13 -5 -13 3 0 2 -13 -3 -30 -5 -19 -5 -32 2 -36 7 -4 7 -9 -1 -13 -6 -4 -13
-21 -14 -38 -2 -16 -7 -35 -11 -42 -4 -7 0 -23 8 -36 26 -40 76 -34 129 14
l42 38 30 -18 c17 -11 43 -19 59 -19 42 0 107 22 103 34 -5 13 -6 13 -70 -11
-47 -18 -49 -18 -63 2 -26 34 0 155 33 155 47 0 98 25 139 67 36 37 44 52 44
82 0 24 -7 44 -17 53 -21 18 -62 28 -83 21z m60 -43 c0 -11 7 -20 15 -20 8 0
15 -4 15 -9 0 -15 -62 -78 -104 -105 -34 -23 -76 -34 -76 -21 0 7 61 106 88
143 28 36 62 43 62 12z"/>
<path d="M1921 2678 c-47 -126 -65 -189 -84 -292 -10 -56 -9 -60 12 -77 37
-30 74 -9 132 76 l21 30 -24 -27 c-13 -16 -29 -28 -36 -28 -7 0 -21 -6 -32
-12 -17 -11 -22 -10 -30 2 -5 8 -5 17 0 20 4 3 13 30 18 60 6 30 24 93 41 139
37 100 37 107 11 121 -17 9 -22 7 -29 -12z"/>
<path d="M3546 2680 c-55 -28 -69 -43 -117 -122 -52 -86 -72 -156 -57 -199 10
-29 13 -30 47 -24 46 9 75 33 150 125 l20 25 -1 -67 c-2 -74 10 -98 48 -98 24
0 32 14 14 25 -21 13 -10 107 26 224 19 62 18 70 -8 64 -27 -7 -78 -52 -78
-68 0 -7 -8 -21 -17 -33 -10 -11 -35 -44 -57 -74 -36 -51 -106 -109 -106 -88
0 26 37 113 79 182 25 43 52 90 59 103 15 30 51 33 88 9 33 -22 46 -8 15 17
-29 24 -55 24 -105 -1z"/>
<path d="M4341 2678 c-9 -24 -56 -171 -71 -223 -5 -16 -12 -53 -16 -81 -6 -46
-4 -53 16 -67 33 -23 74 -3 117 58 19 28 24 38 11 23 -13 -16 -29 -28 -36 -28
-7 0 -21 -6 -32 -12 -17 -11 -22 -10 -30 2 -5 8 -5 17 0 20 4 3 13 30 18 60 6
30 24 92 41 138 37 98 37 108 11 122 -17 9 -22 7 -29 -12z"/>
<path d="M3843 2657 c-35 -46 -104 -193 -110 -235 -5 -36 -2 -47 17 -67 13
-14 32 -25 43 -25 25 0 77 37 77 56 0 8 4 14 8 14 16 0 115 162 115 187 0 14
9 30 23 40 13 8 24 25 24 36 0 19 -2 19 -30 -8 l-30 -28 -24 26 c-33 36 -87
37 -113 4z m111 -53 c7 -26 0 -39 -73 -124 -21 -25 -50 -58 -64 -75 -55 -66
-39 4 35 150 49 98 86 115 102 49z m-171 -114 c-3 -11 -10 -23 -16 -27 -7 -4
-8 0 -4 11 4 10 7 22 7 27 0 5 4 9 9 9 5 0 7 -9 4 -20z"/>
<path d="M4177 2500 c-19 -16 -34 -36 -34 -44 0 -8 4 -13 9 -10 5 3 6 10 3 15
-4 5 5 13 19 19 14 5 30 18 36 30 15 27 7 25 -33 -10z"/>
<path d="M2724 2461 c-21 -15 -48 -38 -59 -51 l-20 -23 20 11 c24 13 112 91
104 92 -3 0 -24 -13 -45 -29z"/>
<path d="M2931 2384 c0 -11 3 -14 6 -6 3 7 2 16 -1 19 -3 4 -6 -2 -5 -13z"/>
<path d="M4359 2383 c-13 -16 -12 -17 4 -4 9 7 17 15 17 17 0 8 -8 3 -21 -13z"/>
<path d="M1850 1505 l0 -235 25 0 25 0 0 125 0 125 50 0 c49 0 50 1 50 30 0
29 -1 30 -50 30 l-50 0 0 50 0 50 50 0 c49 0 50 1 50 30 l0 30 -75 0 -75 0 0
-235z"/>
<path d="M2070 1500 l0 -240 24 0 c23 0 25 4 28 52 2 28 8 53 14 55 6 2 19
-21 29 -52 17 -49 22 -55 47 -55 15 0 28 2 28 3 0 2 -8 28 -19 58 -18 54 -18
55 0 78 17 20 19 41 19 158 0 129 -1 135 -25 158 -20 21 -34 25 -85 25 l-60 0
0 -240z m114 164 c9 -24 7 -217 -3 -232 -4 -8 -19 -12 -32 -10 -24 3 -24 5
-27 131 l-3 127 30 0 c17 0 31 -6 35 -16z"/>
<path d="M2310 1505 l0 -235 75 0 c73 0 75 1 75 25 0 23 -4 25 -45 25 l-45 0
0 100 0 100 45 0 c43 0 45 1 45 30 0 29 -2 30 -45 30 l-45 0 0 50 0 50 45 0
c43 0 45 1 45 30 l0 30 -75 0 -75 0 0 -235z"/>
<path d="M2530 1505 l0 -235 75 0 c73 0 75 1 75 25 0 23 -4 25 -45 25 l-45 0
0 100 0 100 45 0 c43 0 45 1 45 30 0 29 -2 30 -45 30 l-45 0 0 50 0 50 45 0
c43 0 45 1 45 30 l0 30 -75 0 -75 0 0 -235z"/>
<path d="M2910 1505 l0 -235 25 0 25 0 0 125 0 125 50 0 c49 0 50 1 50 30 0
29 -1 30 -50 30 l-50 0 0 50 0 50 50 0 c49 0 50 1 50 30 l0 30 -75 0 -75 0 0
-235z"/>
<path d="M3155 1715 c-25 -24 -25 -26 -25 -210 0 -184 0 -186 25 -210 16 -17
35 -25 60 -25 25 0 44 8 60 25 25 24 25 26 25 210 0 184 0 186 -25 210 -16 17
-35 25 -60 25 -25 0 -44 -8 -60 -25z m79 -41 c13 -13 16 -42 16 -165 0 -150
-7 -189 -35 -189 -28 0 -35 39 -35 189 0 123 3 152 16 165 8 9 17 16 19 16 2
0 11 -7 19 -16z"/>
<path d="M3370 1500 l0 -240 24 0 c23 0 25 4 28 52 2 28 8 53 14 55 6 2 19
-21 29 -52 17 -49 22 -55 47 -55 33 0 33 1 8 66 -19 51 -19 52 0 69 18 16 20
32 20 157 0 134 -1 140 -25 163 -20 21 -34 25 -85 25 l-60 0 0 -240z m118 70
c4 -135 0 -152 -36 -148 l-27 3 -3 128 -3 128 33 -3 33 -3 3 -105z"/>
<path d="M3846 1728 c-5 -17 -66 -429 -66 -445 0 -20 48 -16 54 5 2 9 8 45 11
80 l7 62 38 0 c42 0 43 -2 55 -102 7 -56 8 -58 37 -58 27 0 29 2 24 28 -10 47
-76 421 -76 432 0 15 -80 12 -84 -2z m73 -225 c1 -8 -11 -13 -30 -13 -27 0
-30 3 -26 23 3 12 9 49 13 82 3 33 9 65 13 70 4 8 27 -113 30 -162z"/>
<path d="M4080 1505 l0 -235 75 0 c73 0 75 1 75 25 0 23 -3 25 -50 25 l-50 0
0 210 0 210 -25 0 -25 0 0 -235z"/>
<path d="M4300 1505 l0 -235 70 0 c68 0 70 1 70 25 0 23 -4 25 -45 25 l-45 0
0 210 0 210 -25 0 -25 0 0 -235z"/>
</g>
</svg>
